<svg xmlns="http://www.w3.org/2000/svg" width="600" height="350" viewBox="0 0 600 350"><rect width="100%" height="100%" fill="#ffc107"/><path fill="#FFFFFF" d="M150.095 155.09v6.19h-12.2v34.3h-7.54v-34.3h-12.2v-6.19zm9.69 22.82h13.05q0-1.34-.38-2.53t-1.13-2.09q-.76-.89-1.92-1.41t-2.7-.52q-3 0-4.72 1.71t-2.2 4.84m17.64 4.17h-17.78q.17 2.22.79 3.83.61 1.61 1.62 2.66t2.39 1.56q1.39.52 3.07.52t2.9-.39 2.13-.87q.91-.47 1.59-.87.69-.39 1.33-.39.87 0 1.29.65l1.99 2.52q-1.15 1.34-2.58 2.25t-2.98 1.46q-1.55.54-3.16.77-1.61.22-3.13.22-2.99 0-5.57-.99-2.57-1-4.48-2.94-1.9-1.95-2.99-4.82-1.1-2.87-1.1-6.65 0-2.94.96-5.53.95-2.59 2.73-4.51 1.77-1.92 4.34-3.04 2.56-1.12 5.78-1.12 2.71 0 5.01.87t3.95 2.54q1.65 1.66 2.59 4.08.94 2.43.94 5.53 0 1.57-.34 2.12-.34.54-1.29.54m21.98 6.08v-4.84q-2.99.14-5.04.51-2.04.38-3.27.97-1.24.59-1.77 1.37-.53.79-.53 1.71 0 1.82 1.08 2.6 1.08.79 2.81.79 2.13 0 3.68-.77 1.56-.77 3.04-2.34m-14.61-15.09-1.24-2.21q4.96-4.54 11.93-4.54 2.52 0 4.51.83 1.99.82 3.36 2.29t2.09 3.52q.71 2.04.71 4.48v18.14h-3.14q-.98 0-1.51-.29-.53-.3-.84-1.19l-.61-2.08q-1.1.98-2.13 1.73-1.04.74-2.16 1.24-1.12.51-2.39.77-1.28.27-2.82.27-1.82 0-3.36-.49t-2.66-1.47-1.73-2.44q-.62-1.45-.62-3.39 0-1.09.37-2.17.36-1.07 1.19-2.05.82-.98 2.14-1.85 1.31-.87 3.23-1.51 1.92-.65 4.47-1.05 2.55-.41 5.82-.49v-1.68q0-2.89-1.23-4.27-1.23-1.39-3.56-1.39-1.68 0-2.78.39-1.11.39-1.95.88t-1.52.89q-.69.39-1.53.39-.73 0-1.23-.38-.51-.38-.81-.88m34.77 22.51h-6.91v-28.73h4.22q1.35 0 1.77 1.26l.45 2.13q.75-.84 1.58-1.54.82-.7 1.76-1.2.94-.51 2.02-.8 1.08-.3 2.36-.3 2.72 0 4.47 1.47t2.62 3.91q.67-1.43 1.68-2.45t2.21-1.67q1.2-.64 2.56-.95t2.73-.31q2.38 0 4.23.73t3.11 2.13 1.92 3.42q.65 2.01.65 4.62v18.28h-6.91V177.3q0-2.75-1.21-4.13-1.2-1.39-3.52-1.39-1.07 0-1.98.36-.91.37-1.59 1.05-.69.69-1.08 1.73-.39 1.03-.39 2.38v18.28h-6.95V177.3q0-2.89-1.16-4.2-1.16-1.32-3.4-1.32-1.51 0-2.82.74-1.3.74-2.42 2.03zm92.91-40.49h5.68v40.49h-6.64v-26.15q0-1.57.17-3.39l-12.23 22.99q-.87 1.65-2.66 1.65h-1.07q-1.79 0-2.66-1.65l-12.37-23.07q.08.92.14 1.82.05.89.05 1.65v26.15h-6.63v-40.49h5.68q.5 0 .87.03.36.03.66.14.29.11.53.36.24.26.46.68l12.12 22.48q.48.9.89 1.85.4.95.79 1.96.4-1.04.82-2 .42-.97.89-1.87l11.96-22.42q.22-.42.47-.68.26-.25.55-.36t.66-.14q.36-.03.87-.03m19.06 22.82h13.05q0-1.34-.38-2.53-.37-1.19-1.13-2.09-.76-.89-1.92-1.41t-2.7-.52q-3 0-4.72 1.71t-2.2 4.84m17.64 4.17h-17.78q.17 2.22.79 3.83.61 1.61 1.62 2.66t2.4 1.56q1.38.52 3.06.52t2.9-.39 2.13-.87q.91-.47 1.59-.87.69-.39 1.33-.39.87 0 1.29.65l1.99 2.52q-1.15 1.34-2.58 2.25-1.42.91-2.98 1.46-1.55.54-3.16.77-1.61.22-3.12.22-3 0-5.58-.99-2.57-1-4.48-2.94-1.9-1.95-2.99-4.82t-1.09-6.65q0-2.94.95-5.53t2.73-4.51 4.34-3.04 5.78-1.12q2.72 0 5.01.87 2.3.87 3.95 2.54 1.65 1.66 2.59 4.08.94 2.43.94 5.53 0 1.57-.34 2.12-.33.54-1.29.54m13.72 13.5h-6.91v-28.73h4.23q1.34 0 1.76 1.26l.45 2.13q.75-.84 1.58-1.54t1.76-1.2q.94-.51 2.02-.8 1.08-.3 2.37-.3 2.71 0 4.46 1.47t2.62 3.91q.67-1.43 1.68-2.45t2.21-1.67q1.21-.64 2.56-.95 1.36-.31 2.73-.31 2.38 0 4.23.73t3.11 2.13 1.92 3.42q.66 2.01.66 4.62v18.28h-6.92V177.3q0-2.75-1.2-4.13-1.21-1.39-3.53-1.39-1.07 0-1.98.36-.91.37-1.59 1.05-.69.69-1.08 1.73-.39 1.03-.39 2.38v18.28h-6.95V177.3q0-2.89-1.16-4.2-1.16-1.32-3.4-1.32-1.51 0-2.81.74-1.31.74-2.43 2.03zm46.9-20.33v12.88q1.18 1.43 2.57 2.02 1.38.59 2.92.59 1.6 0 2.87-.58 1.28-.57 2.17-1.79.9-1.22 1.37-3.11.48-1.89.48-4.52 0-4.73-1.57-6.85-1.57-2.11-4.51-2.11-1.98 0-3.47.91-1.48.91-2.83 2.56m0-21.28v16.41q1.74-1.82 3.85-2.9 2.12-1.08 4.83-1.08 2.5 0 4.5.98t3.41 2.82q1.42 1.83 2.17 4.44.76 2.6.76 5.85 0 3.5-.87 6.35-.87 2.86-2.48 4.89t-3.87 3.15q-2.27 1.12-5.04 1.12-1.35 0-2.44-.27-1.09-.26-2.02-.74-.92-.47-1.69-1.16t-1.47-1.53l-.31 1.94q-.17.72-.57 1.03-.41.31-1.11.31h-4.56v-41.61zm30.33 23.94h13.05q0-1.34-.38-2.53t-1.14-2.09q-.75-.89-1.91-1.41-1.17-.52-2.71-.52-2.99 0-4.71 1.71-1.73 1.71-2.2 4.84m17.64 4.17h-17.78q.17 2.22.78 3.83.62 1.61 1.63 2.66 1 1.05 2.39 1.56 1.39.52 3.07.52t2.89-.39q1.22-.39 2.13-.87.91-.47 1.6-.87.68-.39 1.33-.39.87 0 1.29.65l1.98 2.52q-1.14 1.34-2.57 2.25t-2.98 1.46q-1.56.54-3.17.77-1.61.22-3.12.22-3 0-5.57-.99-2.58-1-4.48-2.94-1.91-1.95-3-4.82t-1.09-6.65q0-2.94.95-5.53t2.73-4.51 4.34-3.04 5.78-1.12q2.72 0 5.02.87 2.29.87 3.94 2.54 1.66 1.66 2.59 4.08.94 2.43.94 5.53 0 1.57-.33 2.12-.34.54-1.29.54m12.91-13.49.42 3.25q1.34-2.58 3.19-4.05t4.37-1.47q1.98 0 3.19.87l-.45 5.18q-.14.5-.41.71-.26.21-.71.21-.42 0-1.25-.14-.82-.14-1.61-.14-1.14 0-2.04.34-.9.33-1.61.96t-1.26 1.53-1.02 2.04v17.7h-6.92v-28.73h4.06q1.07 0 1.49.38t.56 1.36"/></svg>